HIERARCHY
ROOT torus_large
{
	OFFSET 0.000000 0.000000 0.000000
	CHANNELS 6 Xposition Yposition Zposition Yrotation Xrotation Zrotation
	End Site
	{
		OFFSET 0.000000 0.000000 0.000000
	}
}
MOTION
Frames: 137
Frame Time: 0.008333334
0.896234 2.898020 1.871955 23.843760 44.182550 138.639200 
0.940285 2.900748 1.846157 23.588370 44.495030 138.491000 
0.983203 2.901433 1.819170 23.300060 44.624260 138.569400 
1.023305 2.902540 1.793313 23.180640 44.763030 138.532900 
1.061863 2.904854 1.767456 22.679270 44.921990 138.324500 
1.098524 2.907308 1.742331 22.878940 45.158690 138.397700 
1.132936 2.911395 1.718005 22.719130 45.625250 138.341900 
1.164284 2.917538 1.692394 23.344650 46.480410 138.776600 
1.196849 2.923545 1.668723 23.209510 46.522320 138.489500 
1.228570 2.929082 1.645713 23.288130 46.864880 138.237800 
1.259779 2.933311 1.622765 23.132400 47.317110 138.123800 
1.291048 2.936106 1.599919 22.968870 47.672070 137.784400 
1.320695 2.938311 1.578228 22.920260 47.429210 137.233900 
1.348866 2.938925 1.556626 22.724360 47.676760 136.524300 
1.377915 2.939195 1.536004 22.254390 47.430210 135.666300 
1.403993 2.940466 1.514743 21.864170 47.284700 134.919400 
1.430341 2.941786 1.495328 21.729660 46.844670 134.320100 
1.457247 2.943550 1.476010 21.364700 46.524520 133.739400 
1.483128 2.945457 1.456859 21.057420 46.325270 133.047500 
1.507529 2.947935 1.437440 20.800330 46.291110 132.341900 
1.530669 2.951779 1.417129 20.626850 46.508300 131.549400 
1.554771 2.955391 1.398802 19.538560 46.154900 130.206800 
1.579224 2.962335 1.379173 18.853960 46.028050 129.208200 
1.605734 2.970233 1.360794 17.896870 45.866420 128.468800 
1.630737 2.980565 1.341730 17.280850 46.530790 127.623600 
1.654949 2.991154 1.323973 16.496630 47.175460 126.851500 
1.677611 3.000855 1.305784 15.686750 47.137780 125.806800 
1.700738 3.011834 1.290150 14.310540 46.983760 125.025800 
1.717895 3.021343 1.273103 13.640200 47.371090 123.604400 
1.736778 3.028734 1.258428 11.932920 46.697970 122.092300 
1.753446 3.037852 1.243280 10.714890 46.225060 120.518100 
1.769888 3.043767 1.231068 8.788920 44.572470 118.787800 
1.781930 3.052074 1.214713 7.764493 45.681880 116.487800 
1.796661 3.059199 1.201545 6.178847 44.766950 114.570200 
1.808714 3.065426 1.190060 4.520632 44.962200 112.468000 
1.816851 3.072760 1.177624 3.202231 44.227050 110.326200 
1.818514 3.076657 1.166917 2.106533 43.484270 107.899500 
1.818624 3.083227 1.156464 1.145934 43.084740 105.845300 
1.816211 3.090731 1.148090 -0.176025 42.562370 103.678900 
1.813657 3.098624 1.137207 -0.864655 42.005670 101.310300 
1.809487 3.106691 1.128389 -1.501831 41.783860 99.280450 
1.804217 3.115711 1.121831 -2.240143 41.250690 97.384190 
1.797508 3.125790 1.116343 -2.516418 40.819080 95.509740 
1.790528 3.135709 1.114060 -2.834106 39.786130 94.139790 
1.786639 3.147664 1.113886 -3.067200 39.838730 92.957080 
1.781902 3.158150 1.114298 -2.871613 39.575150 91.823880 
1.778869 3.169959 1.117495 -3.217804 39.581260 91.126700 
1.775920 3.179340 1.118156 -3.408661 39.904800 90.132230 
1.773217 3.189809 1.121664 -3.307465 39.210330 90.236560 
1.770440 3.198232 1.124480 -3.453918 38.814710 89.837540 
1.767168 3.207522 1.127930 -3.561676 38.462810 89.791750 
1.763924 3.215741 1.130210 -3.623871 38.529630 89.731490 
1.760976 3.222669 1.131356 -3.376617 38.575230 89.622210 
1.756738 3.228278 1.133744 -3.072266 38.397010 89.717220 
1.751027 3.233495 1.135254 -2.681641 38.501930 89.699510 
1.743811 3.238611 1.137229 -2.291992 38.235990 89.638020 
1.737396 3.243487 1.140678 -1.883453 38.326160 89.735400 
1.726925 3.246991 1.141268 -0.997009 38.726250 89.301030 
1.719640 3.250223 1.145291 -0.059662 37.696280 89.618690 
1.708097 3.253955 1.148369 0.878131 37.851170 89.834340 
1.697083 3.257010 1.148814 2.243080 38.759160 89.593680 
1.687286 3.262729 1.153997 3.525822 38.152850 90.934680 
1.676854 3.267279 1.156995 4.691040 38.405800 91.211480 
1.667516 3.272267 1.159322 6.314791 38.788750 92.250340 
1.656421 3.277386 1.161333 7.521701 39.785430 92.685290 
1.645932 3.282277 1.162235 8.645452 40.646580 93.027920 
1.637482 3.289143 1.166242 9.324183 40.750080 93.921680 
1.627574 3.294906 1.166277 10.245260 42.019450 94.119950 
1.620306 3.301156 1.168100 11.021170 42.207870 94.978540 
1.611356 3.306447 1.168514 11.570560 43.855240 94.667280 
1.605018 3.312545 1.170454 12.276760 44.838670 94.915100 
1.601456 3.318928 1.174932 12.715770 44.996230 95.705310 
1.596487 3.325013 1.179281 12.928080 46.323340 95.309120 
1.595485 3.331644 1.183781 13.241280 47.211140 95.378240 
1.594298 3.337595 1.189900 13.044590 48.130230 94.795560 
1.592616 3.343880 1.195981 12.675870 48.886850 93.937580 
1.591931 3.350754 1.203155 12.145790 50.022650 92.765210 
1.589266 3.360922 1.213701 11.722350 50.814090 91.708980 
1.583277 3.365505 1.223655 11.049890 51.779640 89.752890 
1.580136 3.373575 1.235819 10.138150 52.728200 87.783550 
1.573637 3.381871 1.247776 9.566168 53.275670 85.506830 
1.570321 3.390655 1.260402 8.064204 53.882300 82.741320 
1.568047 3.398762 1.270130 6.798644 54.378600 80.270410 
1.566713 3.406330 1.281613 5.490589 54.528450 78.044250 
1.565108 3.412896 1.294447 5.121124 54.631130 76.971520 
1.562354 3.417464 1.308918 5.010775 55.111640 75.762280 
1.556137 3.420540 1.324856 5.323256 55.405490 75.145570 
1.553442 3.420293 1.341888 4.523868 55.790070 73.964130 
1.544245 3.421371 1.351538 4.485342 56.026410 72.943350 
1.535929 3.423932 1.357326 4.415976 56.105370 72.737920 
1.524462 3.425871 1.361603 4.162909 56.140050 72.231690 
1.511398 3.426963 1.365070 5.219494 55.829330 72.667140 
1.501061 3.423215 1.372511 5.063969 54.823540 72.983440 
1.481190 3.426302 1.369382 7.757795 55.575890 73.325710 
1.463863 3.424192 1.370733 9.577020 55.102320 73.670920 
1.452523 3.419411 1.379277 9.582258 53.533570 74.380460 
1.433535 3.417403 1.382093 11.533870 53.088930 74.741160 
1.408888 3.415802 1.383652 15.103610 52.241330 75.443630 
1.376929 3.415960 1.384792 18.169970 53.965000 74.524330 
1.352771 3.408883 1.397795 20.740790 51.720540 75.173510 
1.320395 3.405067 1.409447 23.570340 51.311330 74.746850 
1.287194 3.399260 1.422852 26.990160 51.202610 74.364010 
1.250930 3.393860 1.441419 30.519440 51.436090 73.563190 
1.214546 3.386837 1.464406 34.522120 50.914250 73.196420 
1.183082 3.377025 1.490716 38.445950 50.306150 73.303030 
1.152469 3.366929 1.516196 42.742880 49.830630 73.576850 
1.128156 3.353292 1.539164 45.765930 49.002950 73.677130 
1.103369 3.340645 1.557734 49.940010 48.822230 74.515190 
1.082634 3.327227 1.571340 52.593190 47.822690 75.366550 
1.059295 3.315188 1.581056 55.034890 47.123410 75.656940 
1.035552 3.303458 1.587450 56.860860 46.335090 75.575940 
1.013029 3.292445 1.593562 58.410900 45.051800 75.698620 
0.989443 3.281379 1.600847 59.639380 44.360270 74.737090 
0.967092 3.271961 1.606737 60.701650 43.105820 74.070890 
0.944227 3.263751 1.612669 61.555840 42.130660 73.057790 
0.923077 3.257305 1.618365 62.104610 41.247780 71.847270 
0.903732 3.254014 1.625923 62.441240 39.998750 70.709240 
0.882509 3.253360 1.635327 62.962510 39.146160 69.132120 
0.863340 3.255307 1.646598 62.954870 38.415390 67.916310 
0.841016 3.258484 1.659590 63.223480 37.904690 66.799160 
0.817284 3.263122 1.672189 63.479590 37.705010 66.044080 
0.792973 3.268189 1.687016 64.409570 37.779310 65.846910 
0.766785 3.273792 1.703887 65.116040 38.259950 65.925200 
0.740312 3.279856 1.722660 66.402670 39.004180 66.304180 
0.713602 3.285784 1.745203 67.653790 39.604860 66.702710 
0.687238 3.293221 1.770351 69.208480 40.368210 66.667200 
0.661379 3.302151 1.797437 70.499590 40.925330 66.645770 
0.635039 3.312571 1.825981 71.891560 41.524570 66.662490 
0.607887 3.323915 1.854286 73.418530 42.125160 66.603690 
0.579550 3.336285 1.882102 74.862980 42.633540 66.695310 
0.549817 3.348462 1.909230 76.035190 43.145070 66.506780 
0.518531 3.360775 1.934359 77.100940 43.633350 66.097740 
0.486260 3.373787 1.958678 77.967130 43.911440 65.404880 
0.454762 3.386721 1.983250 79.025130 43.869080 64.366200 
0.423925 3.401031 2.010648 79.468440 43.932480 62.687260 
0.394224 3.416772 2.041459 80.120670 43.936010 60.697520 
0.366975 3.432545 2.075179 81.010000 44.196260 58.495040 
